<svg width="96" height="14" viewBox="0 0 96 14" fill="none" xmlns="http://www.w3.org/2000/svg">
<path d="M81.0527 0.45459C81.0652 2.11104 81.0652 3.76749 81.0652 5.45685C81.1186 5.41564 81.1425 5.40355 81.1582 5.38416C81.7358 4.67091 82.4761 4.29371 83.3571 4.20935C84.35 4.11428 85.2581 4.35177 86.0473 5.0057C86.6458 5.50158 87.0532 6.14534 87.3035 6.90095C87.5847 7.75 87.6462 8.62369 87.5814 9.51375C87.5339 10.1676 87.4035 10.8005 87.14 11.3957C86.546 12.737 85.5715 13.5641 84.1563 13.7407C83.2011 13.8599 82.3165 13.6422 81.5611 12.9804C81.4217 12.8583 81.2995 12.7141 81.1716 12.5778C81.1484 12.5529 81.1363 12.5164 81.1191 12.4853C81.1046 12.4945 81.09 12.5037 81.0755 12.5129C81.072 12.5617 81.0658 12.6105 81.0656 12.6593C81.0644 12.9071 81.0623 13.1549 81.0656 13.4027C81.0673 13.5241 81.0255 13.5839 80.9029 13.5834C80.2536 13.5809 79.6043 13.5812 78.955 13.5831C78.8407 13.5835 78.792 13.5301 78.7973 13.4129C78.7997 13.3569 78.7971 13.3007 78.7971 13.2446C78.7971 8.99003 78.7971 4.73545 78.7971 0.467737C79.5448 0.45459 80.2925 0.45459 81.0527 0.45459ZM84.0189 11.5426C84.5551 11.2512 84.8649 10.7666 85.0335 10.1796C85.2429 9.45046 85.2516 8.70615 85.105 7.9631C84.9917 7.38915 84.7587 6.88078 84.2795 6.54113C83.3581 5.88796 81.8151 6.02391 81.2234 7.51793C80.8924 8.35394 80.8827 9.22084 81.0793 10.0895C81.2061 10.6503 81.4649 11.1417 81.9503 11.4482C82.611 11.8655 83.3004 11.8914 84.0189 11.5426Z" fill="white"/>
<path d="M71.8449 13.8354C71.714 13.8075 71.5967 13.772 71.477 13.753C70.8425 13.6521 70.2651 13.4203 69.7968 12.9424C69.3568 12.4933 69.1499 11.9304 69.1147 11.2984C69.0854 10.7735 69.1545 10.2617 69.4007 9.79231C69.6814 9.25714 70.1386 8.9416 70.6557 8.71192C71.3601 8.39904 72.1056 8.23907 72.8517 8.08364C73.3223 7.9856 73.7923 7.88379 74.2621 7.78126C74.3402 7.76422 74.417 7.73832 74.4923 7.71047C74.7119 7.62929 74.9517 7.55607 74.9981 7.27184C75.0538 6.93113 74.916 6.66071 74.659 6.45603C74.4517 6.29088 74.2095 6.21282 73.9574 6.16887C73.5143 6.0916 73.072 6.08734 72.6373 6.22439C72.0544 6.40817 71.6986 6.80463 71.6118 7.4501C71.5793 7.69164 71.5762 7.69167 71.3463 7.69177C70.7327 7.69202 70.1191 7.6923 69.5055 7.69148C69.3101 7.69121 69.2875 7.65361 69.3076 7.44929C69.365 6.86689 69.5306 6.32554 69.8464 5.84018C70.2719 5.18625 70.8653 4.76839 71.5666 4.50904C72.1035 4.31049 72.6583 4.21936 73.2277 4.21199C73.8255 4.20425 74.4175 4.23664 74.9985 4.40095C76.248 4.75431 76.9709 5.60356 77.1644 6.94607C77.2008 7.19896 77.2194 7.45711 77.22 7.71291C77.2245 9.58265 77.2225 11.4524 77.2223 13.3221C77.2222 13.5782 77.218 13.5826 76.9773 13.5827C76.3948 13.583 75.8123 13.5831 75.2299 13.5825C75.0204 13.5823 75.0087 13.5699 75.008 13.3543C75.0071 13.0972 75.0081 12.8401 75.0073 12.583C75.0071 12.5343 75.0023 12.4856 74.9974 12.3983C74.8925 12.5318 74.8149 12.6375 74.7305 12.7368C74.2272 13.3291 73.5819 13.6312 72.8479 13.7514C72.7267 13.7712 72.6063 13.7966 72.4792 13.8274C72.2676 13.8354 72.0625 13.8354 71.8449 13.8354ZM74.995 10.0447C75.0173 9.72196 75.0092 9.40012 75.0018 9.05212C74.9111 9.08959 74.8587 9.1136 74.8048 9.13302C74.578 9.21478 74.3539 9.30723 74.123 9.37343C73.7028 9.49388 73.2782 9.59697 72.8562 9.71009C72.5011 9.80524 72.155 9.92722 71.8581 10.1613C71.5329 10.4177 71.4034 10.7694 71.4687 11.1861C71.531 11.5834 71.7718 11.832 72.1307 11.9531C72.5783 12.1042 73.0273 12.0611 73.4712 11.9355C73.9114 11.8109 74.2903 11.58 74.5725 11.1919C74.8144 10.8592 74.9384 10.4795 74.995 10.0447Z" fill="white"/>
<path d="M91.537 13.836C91.4508 13.8101 91.3789 13.7735 91.3033 13.7599C90.2679 13.5738 89.3713 13.1082 88.6422 12.3048C88.5565 12.2104 88.4836 12.1032 88.3997 12.0069C88.3181 11.913 88.3491 11.8556 88.4416 11.8008C88.7862 11.5966 89.1293 11.3895 89.473 11.1836C89.6584 11.0726 89.8452 10.9641 90.0287 10.8498C90.112 10.798 90.1686 10.8065 90.2325 10.8891C90.8249 11.6555 91.6082 11.9687 92.5282 11.9233C92.8934 11.9052 93.2539 11.8153 93.4838 11.4793C93.7669 11.0655 93.7127 10.6371 93.2352 10.4402C92.8451 10.2793 92.4298 10.179 92.0195 10.0807C91.3175 9.91274 90.6056 9.78529 89.9417 9.47619C89.4375 9.24143 88.9822 8.93169 88.6966 8.41898C88.2774 7.6664 88.2584 6.87353 88.5966 6.09194C89.0496 5.0447 89.8921 4.49264 90.9259 4.27771C92.4638 3.95796 93.8663 4.3061 95.0807 5.37189C95.3142 5.5768 95.5043 5.83631 95.7149 6.07014C95.7968 6.16104 95.7863 6.22416 95.6766 6.28424C95.2825 6.50018 94.8914 6.72217 94.4992 6.94196C94.3737 7.0123 94.2464 7.07954 94.1235 7.15447C94.0216 7.21652 93.9509 7.20585 93.8762 7.09978C93.471 6.52522 92.9236 6.19313 92.2518 6.10793C91.89 6.06204 91.5228 6.06013 91.1726 6.20401C90.9011 6.31557 90.6783 6.48292 90.5958 6.79747C90.5054 7.1421 90.6385 7.45196 90.9729 7.57285C91.3288 7.70145 91.6976 7.79273 92.0641 7.8857C92.608 8.02367 93.1602 8.1285 93.699 8.28494C94.2643 8.44907 94.7907 8.71122 95.2255 9.14197C95.5003 9.41421 95.6876 9.74304 95.7947 10.1235C95.8108 10.1806 95.8372 10.2345 95.8664 10.2956C95.8739 10.6292 95.8739 10.9571 95.8663 11.3039C95.8417 11.365 95.8192 11.4056 95.8083 11.4494C95.6445 12.1057 95.3007 12.6323 94.7849 13.0389C94.318 13.4069 93.7926 13.6296 93.2245 13.7523C93.1449 13.7695 93.0695 13.8076 92.9921 13.836C92.5112 13.836 92.0304 13.836 91.537 13.836Z" fill="white"/>
<path d="M21.8946 0.45459C21.9072 4.7262 21.9072 8.99781 21.9071 13.2694C21.9071 13.5828 21.907 13.5829 21.6058 13.5829C21.0056 13.5829 20.4055 13.5833 19.8054 13.5826C19.5979 13.5824 19.5859 13.57 19.5859 13.3518C19.5859 9.06149 19.5863 4.77118 19.5861 0.467731C20.3512 0.45459 21.1167 0.45459 21.8946 0.45459Z" fill="white"/>
<path d="M0 0.608614C0.711097 0.595534 1.4222 0.595221 2.13329 0.59591C2.33325 0.596104 2.34771 0.610745 2.34772 0.817762C2.34804 4.9808 2.34804 9.14384 2.34771 13.3069C2.34769 13.5124 2.33299 13.5269 2.13163 13.5271C1.42942 13.5278 0.727218 13.5274 0.0125054 13.5275C0 9.22565 0 4.9237 0 0.608614Z" fill="white"/>
<path d="M18.1594 13.5797C15.8708 13.5814 13.594 13.5821 11.3172 13.5827C10.6635 13.5828 10.0098 13.583 9.35615 13.5825C9.13767 13.5823 9.12616 13.5709 9.12615 13.3478C9.12591 9.1918 9.12591 5.03579 9.12619 0.87977C9.1262 0.663912 9.13877 0.651108 9.3479 0.651087C12.1805 0.650807 15.0132 0.650803 17.8458 0.651114C18.0524 0.651137 18.0642 0.663915 18.0644 0.882953C18.065 1.44862 18.065 2.01429 18.0644 2.57995C18.0642 2.79765 18.0523 2.81028 17.8443 2.81031C15.8255 2.81068 13.8066 2.81056 11.7877 2.81063C11.7344 2.81063 11.681 2.81301 11.6277 2.81105C11.5216 2.80716 11.4739 2.85835 11.474 2.97084C11.4752 3.88245 11.4756 4.79406 11.4736 5.70566C11.4733 5.84041 11.5419 5.86953 11.6518 5.86906C12.1454 5.86694 12.639 5.86839 13.1326 5.86843C13.9731 5.86851 14.8135 5.86822 15.654 5.86872C15.8638 5.86884 15.876 5.88132 15.8763 6.09666C15.8769 6.65298 15.8769 7.2093 15.8763 7.76562C15.8761 7.98945 15.8657 8.00007 15.6468 8.00013C14.3394 8.00047 13.032 8.00023 11.7247 8.00044C11.4758 8.00048 11.474 8.00249 11.4739 8.26894C11.4737 9.24133 11.4736 10.2137 11.4741 11.1861C11.4742 11.4118 11.4845 11.4227 11.7015 11.4227C13.7915 11.423 15.8816 11.4229 17.9716 11.423C18.0294 11.423 18.0872 11.4243 18.145 11.4246C18.2324 11.4251 18.2764 11.4712 18.2764 11.563C18.2765 12.1895 18.2786 12.8159 18.2719 13.4423C18.2714 13.4881 18.2063 13.5332 18.1594 13.5797Z" fill="white"/>
<path d="M31.4318 6.7971C31.6392 7.3558 31.7613 7.923 31.7809 8.51256C31.7921 8.84849 31.8009 9.18456 31.8056 9.52066C31.8094 9.79574 31.806 9.79624 31.5489 9.79626C29.6324 9.79639 27.7158 9.79633 25.7992 9.79637C25.7458 9.79638 25.6925 9.79808 25.6391 9.79677C25.5258 9.794 25.4805 9.83666 25.5008 9.96715C25.6534 10.9489 26.2722 11.6124 27.2037 11.7773C27.6444 11.8554 28.0802 11.8263 28.5087 11.6883C29.0552 11.5122 29.4412 11.1433 29.6887 10.6071C29.7865 10.3953 29.7912 10.3953 30.0005 10.4734C30.5409 10.6752 31.0822 10.8742 31.6232 11.0741C31.8037 11.1408 31.8115 11.1571 31.7241 11.3426C31.208 12.4376 30.3933 13.1651 29.2754 13.498C28.2951 13.7899 27.3001 13.82 26.3092 13.566C24.8252 13.1854 23.8368 12.2235 23.4077 10.6798C23.032 9.32845 23.0826 7.98005 23.6681 6.70055C24.3425 5.22666 25.4918 4.42227 27.033 4.24153C27.7896 4.15279 28.5346 4.22256 29.2495 4.51491C30.2629 4.92937 30.9782 5.66993 31.4007 6.72314C31.4094 6.74466 31.4189 6.76579 31.4318 6.7971ZM26.1897 8.08539C27.185 8.08539 28.1803 8.08541 29.1757 8.08533C29.2245 8.08532 29.2734 8.08451 29.3223 8.08397C29.4168 8.08292 29.463 8.04137 29.4431 7.93484C29.426 7.84333 29.4204 7.74931 29.401 7.65845C29.3014 7.19147 29.1252 6.76826 28.7431 6.47714C28.2948 6.13548 27.7863 6.05716 27.2479 6.11612C26.2868 6.22134 25.6377 6.95137 25.4656 7.92186C25.4455 8.03487 25.4707 8.08959 25.5898 8.08641C25.7808 8.0813 25.9719 8.08526 26.1897 8.08539Z" fill="white"/>
<path d="M42.7043 10.0367C42.8183 10.5795 43.0385 11.0426 43.4636 11.3767C43.7902 11.6333 44.1635 11.7633 44.5639 11.8005C45.157 11.8555 45.7262 11.7765 46.2364 11.4186C46.542 11.2041 46.7531 10.907 46.902 10.5613C46.9603 10.4262 47.0297 10.4094 47.1524 10.4556C47.6962 10.6608 48.2426 10.8588 48.7876 11.0606C49 11.1393 49.0005 11.1461 48.9048 11.3528C48.2902 12.6799 47.2492 13.3928 45.8959 13.6355C45.0234 13.7919 44.1484 13.7818 43.2948 13.5114C41.8593 13.0567 40.937 12.0596 40.558 10.5336C40.2579 9.3251 40.2887 8.1179 40.7496 6.95921C41.3921 5.34423 42.5683 4.44233 44.2209 4.24174C45.019 4.14486 45.8019 4.23286 46.5491 4.5601C47.6199 5.02904 48.311 5.87244 48.6966 7.00705C48.9005 7.60684 48.9841 8.22949 48.9903 8.86448C48.9928 9.12153 48.9887 9.37866 48.9906 9.63573C48.9914 9.74802 48.9433 9.79968 48.8371 9.79581C48.7839 9.79387 48.7305 9.79624 48.6771 9.79624C46.7963 9.79628 44.9155 9.79627 43.0347 9.79628C42.9858 9.79628 42.9369 9.7961 42.888 9.79638C42.6706 9.79762 42.6663 9.80304 42.7043 10.0367ZM46.069 8.08532C46.2067 8.0851 46.3445 8.08729 46.4821 8.08399C46.6246 8.08058 46.652 8.04316 46.6294 7.89172C46.6156 7.79953 46.6025 7.70695 46.5829 7.61601C46.4798 7.13615 46.2783 6.71689 45.8782 6.43654C45.4191 6.11486 44.9068 6.04892 44.371 6.124C43.4134 6.25819 42.8095 7.01477 42.6526 7.95013C42.6391 8.03104 42.6729 8.07644 42.7507 8.08169C42.8038 8.08528 42.8572 8.08517 42.9105 8.08518C43.9544 8.08537 44.9984 8.08532 46.069 8.08532Z" fill="white"/>
<path d="M52.59 8.19529C52.5723 8.41679 52.5427 8.62593 52.5421 8.83516C52.538 10.331 52.54 11.8268 52.5398 13.3227C52.5398 13.579 52.5356 13.5834 52.2951 13.5835C51.6726 13.5838 51.0501 13.584 50.4276 13.5832C50.2354 13.583 50.2191 13.5667 50.2191 13.3691C50.2187 10.4475 50.2187 7.52591 50.219 4.60433C50.219 4.39779 50.2335 4.38328 50.4342 4.38307C51.0656 4.38242 51.697 4.38238 52.3283 4.38311C52.5255 4.38334 52.5391 4.39825 52.5396 4.60845C52.5405 4.93099 52.5396 5.25353 52.5403 5.57607C52.5404 5.62487 52.5448 5.67366 52.5758 5.7302C52.6007 5.68875 52.6271 5.64815 52.6504 5.60573C53.1081 4.77359 53.7892 4.30789 54.7012 4.21067C55.3432 4.14223 55.9603 4.2193 56.5435 4.52365C57.1426 4.83627 57.5361 5.34613 57.7888 5.98299C58.0069 6.53241 58.1121 7.10964 58.1159 7.70415C58.1278 9.55 58.1347 11.3959 58.1434 13.2418C58.1437 13.2979 58.1405 13.3541 58.1434 13.41C58.1499 13.5366 58.0927 13.5856 57.975 13.5842C57.686 13.5808 57.397 13.5836 57.1079 13.5836C56.7478 13.5837 56.3876 13.5843 56.0275 13.5832C55.8381 13.5826 55.8226 13.5665 55.8225 13.3654C55.822 11.6919 55.8253 10.0184 55.8197 8.34497C55.8184 7.97675 55.7984 7.60752 55.6873 7.25146C55.5044 6.66492 55.1051 6.34558 54.5199 6.28605C54.0792 6.24121 53.6762 6.32442 53.3268 6.61154C52.9803 6.89626 52.7932 7.29315 52.6794 7.73019C52.6408 7.87844 52.6203 8.03189 52.59 8.19529Z" fill="white"/>
<path d="M60.3322 6.73872C60.3322 4.81765 60.3322 2.91059 60.3322 1.00354C60.3322 0.952128 60.3317 0.9007 60.3325 0.8493C60.3355 0.674928 60.3538 0.652989 60.5168 0.652271C60.8992 0.650587 61.2816 0.651488 61.6639 0.651494C61.9529 0.651498 62.242 0.654777 62.5309 0.650442C62.654 0.648595 62.7148 0.696146 62.7071 0.830656C62.7029 0.905165 62.7069 0.980177 62.7069 1.05496C62.7069 4.40165 62.7069 7.74834 62.7069 11.095C62.7069 11.1511 62.7092 11.2073 62.7073 11.2633C62.7036 11.3757 62.7546 11.4245 62.8606 11.4234C63.0785 11.4213 63.2963 11.4235 63.5142 11.4235C65.0125 11.4236 66.5109 11.4235 68.0092 11.4237C68.2527 11.4237 68.2568 11.428 68.257 11.6812C68.2573 12.2374 68.2575 12.7936 68.2569 13.3498C68.2566 13.5698 68.2447 13.583 68.0395 13.583C65.5408 13.5834 63.0421 13.5834 60.5434 13.583C60.3465 13.5829 60.3325 13.5678 60.3325 13.3573C60.3321 11.1558 60.3322 8.95427 60.3322 6.73872Z" fill="white"/>
<path d="M38.9066 8.98384C38.3986 10.4469 37.8935 11.8994 37.3897 13.3525C37.3109 13.58 37.3136 13.582 37.0884 13.5821C36.5148 13.5826 35.9413 13.5771 35.3679 13.5856C35.2128 13.5879 35.1386 13.528 35.0844 13.3786C34.4671 11.6759 33.8444 9.97521 33.223 8.27407C32.7736 7.044 32.3239 5.81407 31.8745 4.58404C31.8068 4.39882 31.8163 4.38208 32.0009 4.38186C32.6722 4.38108 33.3436 4.38479 34.0149 4.37893C34.1532 4.37772 34.2207 4.42885 34.2652 4.56727C34.7964 6.21827 35.3325 7.86751 35.8675 9.51711C35.9765 9.85322 36.0863 10.1891 36.1966 10.5247C36.2105 10.5672 36.2292 10.608 36.2625 10.6919C36.2967 10.5941 36.3194 10.5364 36.3373 10.4771C36.7913 8.97178 37.2447 7.4662 37.6986 5.96081C37.8383 5.49761 37.9831 5.03606 38.1173 4.57114C38.1574 4.432 38.2246 4.3777 38.3646 4.37897C39.0136 4.3849 39.6627 4.38111 40.3118 4.38181C40.4887 4.382 40.5 4.3987 40.4383 4.5761C39.9534 5.97169 39.4676 7.36697 38.9821 8.76238C38.9577 8.8326 38.934 8.90312 38.9066 8.98384Z" fill="white"/>
<path d="M4.56252 4.66284C4.56254 3.37764 4.56238 2.10646 4.56273 0.835285C4.56279 0.606748 4.57307 0.595792 4.78718 0.595611C5.41843 0.595076 6.04969 0.595103 6.68094 0.595572C6.90213 0.595736 6.91032 0.604633 6.91033 0.844166C6.91052 4.14362 6.91048 7.44307 6.91049 10.7425C6.91049 11.5931 6.91072 12.4437 6.91022 13.2942C6.91009 13.5138 6.89809 13.5267 6.69252 13.5269C6.05682 13.5275 5.42112 13.5275 4.78543 13.5269C4.57289 13.5268 4.56273 13.5157 4.56271 13.2853C4.56247 10.4159 4.56254 7.54636 4.56252 4.66284Z" fill="white"/>
</svg>
