<svg width="76" height="24" viewBox="0 0 76 24" fill="none" xmlns="http://www.w3.org/2000/svg">
<g clip-path="url(#clip0_144_1804)">
<path d="M17.6422 6.1063C17.6271 6.1137 17.6135 6.124 17.6024 6.13664C17.5912 6.14925 17.5827 6.16396 17.5772 6.1799C17.5718 6.19583 17.5695 6.21269 17.5706 6.22949C17.5717 6.24631 17.5761 6.26272 17.5836 6.27782C17.6169 6.34427 17.6301 6.41894 17.6216 6.49275C17.6131 6.56656 17.5833 6.6363 17.5358 6.69348C17.5153 6.71973 17.5059 6.75289 17.5095 6.78596C17.5132 6.81902 17.5296 6.84937 17.5552 6.87057C17.5809 6.89177 17.6138 6.90217 17.647 6.89955C17.6802 6.89693 17.7111 6.8815 17.7331 6.85653C17.8123 6.76115 17.862 6.64484 17.8761 6.52177C17.8903 6.39872 17.8683 6.2742 17.8129 6.16337C17.7976 6.13337 17.7712 6.11057 17.7393 6.09989C17.7073 6.08921 17.6725 6.0915 17.6422 6.1063Z" fill="#FF6C37"/>
<path d="M12.7188 0.65392C6.65638 -0.122075 1.11094 4.15424 0.333357 10.2079C-0.444231 16.2616 3.83808 21.7957 9.90074 22.5723C15.9634 23.3489 21.5092 19.0726 22.2862 13.0207C23.0631 6.96872 18.7811 1.43109 12.7188 0.65392ZM14.9976 7.54684C14.7923 7.54973 14.5962 7.6325 14.451 7.77749L10.3444 11.8764L9.46885 11.0018C13.5145 6.97253 14.244 6.93389 14.9976 7.54684ZM10.5115 12.0228L14.6064 7.93381C14.7136 7.82711 14.8587 7.76721 15.01 7.76721C15.1614 7.76721 15.3065 7.82711 15.4136 7.93381C15.4688 7.98892 15.5121 8.05475 15.5408 8.12723C15.5695 8.19971 15.583 8.27727 15.5804 8.35517C15.5779 8.43304 15.5594 8.50959 15.5261 8.58005C15.4928 8.65051 15.4453 8.71341 15.3867 8.76484L11.0533 12.5646L10.5115 12.0228ZM10.8161 12.6609L9.80164 12.8793C9.78962 12.8819 9.77708 12.8805 9.76591 12.8754C9.75473 12.8703 9.74552 12.8617 9.73965 12.8509C9.73376 12.8402 9.73155 12.8278 9.73331 12.8156C9.73507 12.8035 9.74074 12.7922 9.74945 12.7836L10.3441 12.1896L10.8161 12.6609ZM8.23033 12.2385L9.31169 11.159L10.1221 11.9681L8.2966 12.3603C8.28133 12.3635 8.26545 12.3617 8.25127 12.3552C8.23711 12.3487 8.22546 12.3378 8.218 12.3241C8.21055 12.3104 8.20774 12.2947 8.20995 12.2793C8.21218 12.2638 8.21933 12.2496 8.23033 12.2385ZM4.86841 17.8186C4.85523 17.8171 4.84277 17.8119 4.83245 17.8036C4.82212 17.7953 4.81436 17.7842 4.81004 17.7717C4.80571 17.7592 4.80501 17.7457 4.80802 17.7328C4.81105 17.72 4.81764 17.7082 4.82707 17.6989L5.69937 16.8277L6.82616 17.9527L4.86841 17.8186ZM7.10529 16.6606C7.06374 16.6821 7.03053 16.7168 7.01089 16.7592C6.99126 16.8016 6.98629 16.8493 6.99681 16.8948L7.18387 17.6924C7.18865 17.7167 7.18561 17.7419 7.17519 17.7643C7.16475 17.7868 7.14748 17.8053 7.12581 17.8173C7.10416 17.8294 7.07924 17.8343 7.05464 17.8313C7.03006 17.8283 7.00702 17.8176 6.98889 17.8007L5.85682 16.6706L9.32518 13.2077L11.0041 12.8477L11.8098 13.6521C10.6514 14.6643 9.06861 15.6765 7.10529 16.6597V16.6606ZM11.9726 13.5042L11.1988 12.732L15.5327 8.93168C15.5729 8.89644 15.6095 8.85721 15.6418 8.8146C15.5048 10.0551 13.7702 11.8038 11.9737 13.5033L11.9726 13.5042ZM15.3444 7.55415C15.0406 7.24805 14.8664 6.83696 14.8579 6.40611C14.8494 5.97525 15.0073 5.55765 15.2988 5.23985C15.5904 4.92205 15.9933 4.72843 16.4239 4.69914C16.8546 4.66984 17.2801 4.80709 17.6121 5.08245L16.1247 6.5677C16.1143 6.57791 16.1061 6.59006 16.1006 6.60345C16.095 6.61683 16.0921 6.6312 16.0921 6.64572C16.0921 6.66021 16.095 6.67458 16.1006 6.68798C16.1061 6.70136 16.1143 6.7135 16.1247 6.72371L17.2746 7.87205C16.9603 8.02694 16.6052 8.07951 16.2593 8.02233C15.9135 7.96514 15.5943 7.80108 15.3468 7.55327L15.3444 7.55415ZM17.7218 7.55415C17.6456 7.62984 17.5623 7.69788 17.4728 7.75731L16.3586 6.64497L17.7728 5.23349C18.0652 5.55235 18.223 5.97155 18.2134 6.40372C18.2038 6.83591 18.0275 7.2477 17.7212 7.55327L17.7218 7.55415Z" fill="#FF6C37"/>
<path d="M28.3633 14.7962V8.40322C28.3633 8.36609 28.3715 8.32938 28.3872 8.2957C28.4028 8.26202 28.4257 8.23218 28.454 8.20828C28.5186 8.15297 28.6013 8.12393 28.6862 8.12691H30.485C31.0178 8.10156 31.5405 8.27824 31.9487 8.6216C32.3154 8.95119 32.4986 9.47117 32.4986 10.1815V10.2673C32.4986 10.9776 32.3122 11.4991 31.9393 11.8318C31.5231 12.1781 30.9921 12.3557 30.4514 12.3295H29.1677V14.7962C29.169 14.8384 29.1589 14.8801 29.1381 14.917C29.1176 14.9538 29.0873 14.9843 29.0505 15.0052C28.9654 15.0555 28.8684 15.082 28.7697 15.082C28.6707 15.082 28.5737 15.0555 28.4887 15.0052C28.4505 14.9854 28.4184 14.9553 28.3963 14.9184C28.3742 14.8815 28.3629 14.8392 28.3633 14.7962ZM29.1618 11.667H30.4526C30.6223 11.6774 30.7925 11.6527 30.9522 11.5943C31.112 11.536 31.2579 11.4454 31.3811 11.3281C31.6197 11.0473 31.7373 10.6834 31.7083 10.3161V10.1991C31.7373 9.83174 31.6197 9.4679 31.3811 9.18712C31.2577 9.07014 31.1118 8.97986 30.952 8.92193C30.7923 8.86401 30.6223 8.8397 30.4526 8.85051H29.1688L29.1618 11.667Z" fill="#FF6C37"/>
<path d="M35.292 13.0645V10.2008C35.292 9.486 35.4774 8.96135 35.8482 8.62686C36.2782 8.30396 36.8016 8.12939 37.3394 8.12939C37.8772 8.12939 38.4006 8.30396 38.8306 8.62686C39.2046 8.96115 39.3903 9.486 39.3923 10.2008V13.0653C39.3923 13.7819 39.2051 14.3066 38.8306 14.6393C38.4012 14.9656 37.8764 15.1422 37.3371 15.1422C36.7977 15.1422 36.273 14.9656 35.8435 14.6393C35.4754 14.3041 35.292 13.7843 35.292 13.0645ZM36.0928 13.0645C36.0928 13.9652 36.5061 14.4157 37.3371 14.4157C37.5066 14.427 37.6768 14.4029 37.8367 14.345C37.9965 14.287 38.1426 14.1964 38.2654 14.079C38.5032 13.7968 38.6208 13.4325 38.5928 13.0645V10.2008C38.6071 10.0187 38.5856 9.83552 38.5292 9.66174C38.4729 9.48795 38.383 9.32698 38.2643 9.18801C38.141 9.07098 37.995 8.98069 37.8352 8.92276C37.6754 8.86483 37.5054 8.84054 37.3359 8.85138C36.5049 8.85138 36.0917 9.30158 36.0917 10.1999L36.0928 13.0645Z" fill="#FF6C37"/>
<path d="M42.2188 14.1022C42.2219 13.9946 42.26 13.8911 42.3277 13.8074C42.3529 13.7674 42.3869 13.7336 42.4272 13.7086C42.4673 13.6837 42.5127 13.6682 42.5598 13.6634C42.6439 13.6785 42.7208 13.721 42.7781 13.7843C42.8659 13.863 42.959 13.9514 43.0544 14.0477C43.1837 14.1678 43.3372 14.2588 43.5046 14.3147C43.7272 14.398 43.9634 14.4377 44.201 14.4318C44.5499 14.4523 44.8945 14.3459 45.1713 14.1323C45.2925 14.0221 45.3874 13.8858 45.4484 13.7337C45.5096 13.5816 45.5354 13.4177 45.5243 13.2541C45.5307 13.0978 45.5057 12.9416 45.4503 12.7952C45.395 12.6488 45.3107 12.5151 45.2024 12.4021C44.9816 12.1816 44.7154 12.0118 44.4226 11.9044C44.1162 11.7906 43.8121 11.6723 43.4939 11.5377C43.1858 11.4076 42.916 11.2016 42.7094 10.9388C42.4851 10.6388 42.3713 10.2706 42.3873 9.89638C42.3805 9.59519 42.4456 9.29667 42.5776 9.02585C42.6897 8.79511 42.8663 8.60187 43.0861 8.46969C43.2926 8.34759 43.5152 8.25536 43.7475 8.1957C43.9871 8.13701 44.2327 8.1082 44.4793 8.10994C44.8619 8.10798 45.2424 8.16515 45.6074 8.27942C45.9649 8.39651 46.146 8.55341 46.146 8.74366C46.1417 8.84585 46.1086 8.94474 46.0509 9.02907C46.0273 9.07478 45.9917 9.11323 45.9479 9.14023C45.9041 9.16726 45.8538 9.18185 45.8024 9.18246C45.6561 9.1366 45.5133 9.07994 45.3752 9.01298C45.0971 8.88948 44.7954 8.82766 44.4911 8.83178C44.1654 8.81721 43.8428 8.89787 43.5623 9.0639C43.4424 9.14735 43.3464 9.26065 43.2836 9.39258C43.221 9.52451 43.1939 9.67054 43.205 9.81618C43.1982 9.9515 43.2228 10.0865 43.2772 10.2106C43.3317 10.3347 43.4143 10.4444 43.5183 10.531C43.7514 10.7216 44.0172 10.8679 44.3029 10.9628C44.6117 11.072 44.9176 11.1949 45.2313 11.3342C45.5446 11.4853 45.8121 11.7168 46.0067 12.0051C46.2332 12.3538 46.3458 12.7643 46.3286 13.1798C46.3286 13.8343 46.1383 14.3264 45.7578 14.6607C45.3338 15.0093 44.795 15.1873 44.2466 15.1598C43.7463 15.1761 43.2514 15.0532 42.8168 14.8047C42.4137 14.5664 42.2188 14.332 42.2188 14.1022Z" fill="#FF6C37"/>
<path d="M48.7061 8.47987C48.7044 8.39167 48.7312 8.3053 48.7828 8.23369C48.8049 8.19891 48.836 8.17067 48.8728 8.1519C48.9095 8.13313 48.9506 8.12448 48.9917 8.12685H52.8634C52.9044 8.12448 52.9455 8.13313 52.9823 8.1519C53.019 8.17067 53.0501 8.19891 53.0722 8.23369C53.1229 8.30575 53.1497 8.39182 53.1489 8.47987C53.1508 8.57233 53.124 8.66314 53.0722 8.7398C53.0507 8.77543 53.0198 8.80461 52.983 8.82423C52.9463 8.84386 52.9048 8.85321 52.8634 8.85133H51.343V14.7964C51.3444 14.8386 51.3342 14.8804 51.3135 14.9172C51.2929 14.954 51.2626 14.9845 51.2258 15.0054C51.1408 15.0557 51.0438 15.0822 50.9448 15.0822C50.8461 15.0822 50.7491 15.0557 50.664 15.0054C50.6272 14.9845 50.5969 14.954 50.5764 14.9172C50.5556 14.8804 50.5455 14.8386 50.5468 14.7964V8.85133H49.0032C48.9619 8.85348 48.9211 8.84474 48.8843 8.82599C48.8475 8.80721 48.8164 8.77911 48.7941 8.74447C48.737 8.66808 48.7061 8.57527 48.7061 8.47987Z" fill="#FF6C37"/>
<path d="M55.86 14.7965V8.52856C55.8452 8.4378 55.8669 8.34487 55.9203 8.27006C55.9739 8.19526 56.0546 8.14464 56.1454 8.12929C56.1868 8.12227 56.2291 8.12227 56.2705 8.12929C56.5238 8.12929 56.7348 8.29642 56.9091 8.63306L58.4017 11.4976L59.906 8.63306C60.0894 8.29642 60.3004 8.12929 60.542 8.12929C60.6325 8.11478 60.725 8.1368 60.7993 8.19054C60.8736 8.24428 60.9237 8.32533 60.9382 8.41586C60.9384 8.41713 60.9384 8.4184 60.9382 8.41967C60.9441 8.45268 60.9441 8.48648 60.9382 8.51949V14.7871C60.9396 14.8293 60.9294 14.871 60.9089 14.9078C60.8881 14.9446 60.8578 14.9751 60.8212 14.9959C60.7362 15.0462 60.6392 15.0727 60.5404 15.0727C60.4414 15.0727 60.3446 15.0462 60.2596 14.9959C60.2228 14.975 60.1927 14.9445 60.1719 14.9078C60.1514 14.871 60.141 14.8293 60.1424 14.7871V9.8007L58.7056 12.5028C58.6829 12.5685 58.6406 12.6258 58.5849 12.6673C58.529 12.7087 58.4619 12.7323 58.3925 12.7349C58.3256 12.7302 58.2618 12.7056 58.2092 12.6642C58.1566 12.6228 58.1177 12.5666 58.0973 12.5028L56.6607 9.75447V14.7965C56.6621 14.8387 56.6519 14.8805 56.6312 14.9173C56.6106 14.9541 56.5803 14.9846 56.5438 15.0055C56.4645 15.0608 56.3709 15.0914 56.2745 15.0933C56.1753 15.0966 56.0775 15.07 55.9938 15.0169C55.9522 14.9976 55.9171 14.9663 55.8933 14.927C55.8696 14.8878 55.8579 14.8424 55.86 14.7965Z" fill="#FF6C37"/>
<path d="M63.6709 14.7525C63.6727 14.7261 63.6789 14.7001 63.6897 14.6759L65.637 8.40816C65.6929 8.22463 65.8529 8.13184 66.1222 8.13184C66.3915 8.13184 66.5516 8.22463 66.6072 8.40816L68.559 14.706C68.5566 14.7175 68.5566 14.7293 68.559 14.7408C68.5613 14.75 68.5613 14.7595 68.559 14.7686C68.5564 14.8178 68.5406 14.8654 68.5132 14.9063C68.4858 14.9471 68.4477 14.9798 68.4033 15.0008C68.2988 15.0651 68.1778 15.0974 68.0552 15.0935C67.9942 15.1018 67.9322 15.0885 67.8801 15.0559C67.8279 15.0233 67.7888 14.9734 67.7694 14.915L67.3519 13.5222H64.859L64.442 14.9138C64.4236 14.974 64.3841 15.0255 64.3309 15.0591C64.2778 15.0927 64.2144 15.1062 64.152 15.0971C64.0378 15.097 63.9261 15.0639 63.8301 15.0019C63.7826 14.9799 63.7421 14.9448 63.7139 14.9005C63.6858 14.8563 63.6707 14.805 63.6709 14.7525ZM65.052 12.8467H67.1806L66.1151 9.29013L65.052 12.8467Z" fill="#FF6C37"/>
<path d="M71.3194 14.7963V8.40336C71.3194 8.22013 71.4516 8.12704 71.7186 8.12704C71.842 8.12432 71.9621 8.16586 72.0575 8.24412C72.1705 8.35466 72.2619 8.4853 72.3268 8.62934L74.6977 13.2721V8.39839C74.6971 8.35689 74.7077 8.31596 74.7282 8.27991C74.7487 8.24387 74.7786 8.21403 74.8146 8.19349C74.9011 8.14693 74.9975 8.12256 75.0955 8.12256C75.1936 8.12256 75.2901 8.14693 75.3765 8.19349C75.4127 8.21403 75.4426 8.24385 75.4635 8.27985C75.4843 8.31586 75.4952 8.35679 75.495 8.39839V14.7963C75.4962 14.8387 75.4856 14.8805 75.4647 14.9173C75.444 14.9542 75.4133 14.9846 75.3765 15.0053C75.2926 15.0583 75.1948 15.085 75.0957 15.082C74.986 15.0764 74.88 15.0392 74.7906 14.975C74.7012 14.9108 74.6324 14.8222 74.5919 14.7199L72.1175 9.93544V14.7963C72.1187 14.8385 72.1083 14.8801 72.0878 14.9169C72.0671 14.9537 72.037 14.9842 72.0004 15.0053C71.9153 15.0556 71.8183 15.0821 71.7194 15.0821C71.6206 15.0821 71.5236 15.0556 71.4385 15.0053C71.4014 14.9847 71.3707 14.9543 71.3497 14.9175C71.3286 14.8806 71.3183 14.8387 71.3194 14.7963Z" fill="#FF6C37"/>
</g>
<defs>
<clipPath id="clip0_144_1804">
<rect width="75.4957" height="23.2727" fill="white"/>
</clipPath>
</defs>
</svg>
