<svg width="81" height="80" viewBox="0 0 81 80" fill="none" xmlns="http://www.w3.org/2000/svg">
<g clip-path="url(#clip0_3_15)">
<path d="M30.8217 29.2252V21.6718C30.8217 21.0356 31.0605 20.5584 31.6168 20.2407L46.8035 11.4948C48.8706 10.3022 51.3355 9.74589 53.8794 9.74589C63.4203 9.74589 69.4635 17.1404 69.4635 25.0114C69.4635 25.5679 69.4635 26.204 69.3838 26.8402L53.6408 17.6169C52.6869 17.0607 51.7324 17.0607 50.7784 17.6169L30.8217 29.2252ZM66.2827 58.6437V40.5948C66.2827 39.4814 65.8053 38.6863 64.8515 38.1299L44.8948 26.5217L51.4146 22.7845C51.971 22.4668 52.4482 22.4668 53.0047 22.7845L68.1912 31.5305C72.5645 34.0751 75.506 39.4814 75.506 44.7287C75.506 50.7711 71.9284 56.3371 66.2827 58.643V58.6437ZM26.1308 42.742L19.611 38.9258C19.0548 38.6081 18.816 38.1307 18.816 37.4946V20.0028C18.816 11.4956 25.3357 5.05491 34.1614 5.05491C37.5012 5.05491 40.6014 6.16829 43.2259 8.15594L27.5626 17.2202C26.6088 17.7765 26.1316 18.5716 26.1316 19.6851V42.7427L26.1308 42.742ZM40.1643 50.8517L30.8217 45.6043V34.4734L40.1643 29.226L49.5061 34.4734V45.6043L40.1643 50.8517ZM46.1671 75.0228C42.8275 75.0228 39.7273 73.9094 37.1028 71.9219L52.7659 62.8574C53.7199 62.3012 54.1971 61.5061 54.1971 60.3926V37.335L60.7967 41.1512C61.353 41.4689 61.5918 41.9461 61.5918 42.5824V60.0742C61.5918 68.5814 54.9922 75.0221 46.1671 75.0221V75.0228ZM27.3233 57.2924L12.1367 48.5465C7.76336 46.0018 4.8219 40.5956 4.8219 35.3482C4.8219 29.226 8.47938 23.74 14.1242 21.434V39.5619C14.1242 40.6753 14.6016 41.4704 15.5554 42.0268L35.433 53.5552L28.9133 57.2924C28.357 57.61 27.8796 57.61 27.3233 57.2924ZM26.4492 70.3318C17.4646 70.3318 10.8652 63.5735 10.8652 55.225C10.8652 54.5889 10.9449 53.9527 11.024 53.3166L26.6872 62.3809C27.641 62.9373 28.5956 62.9373 29.5494 62.3809L49.5061 50.8525V58.4059C49.5061 59.0421 49.2675 59.5193 48.7111 59.8369L33.5246 68.5829C31.4572 69.7755 28.9923 70.3318 26.4484 70.3318H26.4492ZM46.1671 79.793C55.7879 79.793 63.8178 72.9554 65.6472 63.8911C74.5521 61.5852 80.2768 53.2367 80.2768 44.7295C80.2768 39.1636 77.8918 33.7574 73.5982 29.8613C73.9957 28.1915 74.2343 26.5217 74.2343 24.8527C74.2343 13.4831 65.0111 4.97504 54.3567 4.97504C52.2105 4.97504 50.1431 5.2927 48.0757 6.00872C44.4973 2.51016 39.5677 0.284058 34.1614 0.284058C24.5408 0.284058 16.5108 7.12144 14.6814 16.1857C5.77654 18.4917 0.0518799 26.8402 0.0518799 35.3474C0.0518799 40.9133 2.43689 46.3194 6.73051 50.2155C6.33298 51.8854 6.09436 53.5552 6.09436 55.2243C6.09436 66.594 15.3176 75.1018 25.9718 75.1018C28.1182 75.1018 30.1856 74.7842 32.2529 74.0681C35.8305 77.5667 40.7601 79.793 46.1671 79.793Z" fill="black"/>
</g>
<defs>
<clipPath id="clip0_3_15">
<rect width="80.2867" height="80" fill="white"/>
</clipPath>
</defs>
</svg>
